<svg width="17" height="24" viewBox="0 0 17 24" fill="none" xmlns="http://www.w3.org/2000/svg">
<path d="M3.56399 13.8914L0.361872 20.7202C0.261622 20.9266 0.36777 21.0563 0.703903 20.9915L3.31042 20.4253C3.362 20.4072 3.41882 20.4116 3.46703 20.4374C3.51524 20.4632 3.55042 20.508 3.56399 20.561L4.73751 22.967C4.84956 23.2264 4.97929 23.2795 5.07954 23.0731L8.48806 15.9259L3.56399 13.8914Z" fill="#DE7818"/>
<path d="M13.4358 13.8914L16.6379 20.7202C16.7441 20.9266 16.632 21.0563 16.2959 20.9915L13.6894 20.4253C13.6378 20.4079 13.5812 20.4126 13.5332 20.4382C13.4852 20.4639 13.4499 20.5083 13.4358 20.561L12.2623 22.967C12.1502 23.2264 12.0264 23.2795 11.9202 23.0731L8.51172 15.9259L13.4358 13.8914Z" fill="#DE7818"/>
<path d="M7.53883 17.9132C7.53883 17.9191 7.52704 17.9132 7.51524 17.9132C5.72842 17.7151 4.05321 16.9458 2.7386 15.7195C2.73271 15.7136 2.71502 15.7077 2.72091 15.7018L2.86834 15.3892C2.87424 15.3774 2.88603 15.4069 2.89193 15.4128C4.15391 16.5863 5.90534 17.3235 7.69806 17.5417C7.70395 17.5417 7.71575 17.5417 7.71575 17.5476L7.53883 17.9132Z" fill="#B35454"/>
<path d="M8.49996 17.5829C13.1345 17.5829 16.8915 13.8259 16.8915 9.19136C16.8915 4.55683 13.1345 0.799805 8.49996 0.799805C3.86543 0.799805 0.108398 4.55683 0.108398 9.19136C0.108398 13.8259 3.86543 17.5829 8.49996 17.5829Z" fill="#F0CD0A"/>
<path d="M8.49989 16.427C12.4961 16.427 15.7356 13.1875 15.7356 9.19129C15.7356 5.19511 12.4961 1.95557 8.49989 1.95557C4.50371 1.95557 1.26416 5.19511 1.26416 9.19129C1.26416 13.1875 4.50371 16.427 8.49989 16.427Z" fill="#D2B309"/>
<path d="M8.6998 16.3996C12.5657 16.3996 15.6996 13.2657 15.6996 9.39975C15.6996 5.53384 12.5657 2.3999 8.6998 2.3999C4.83389 2.3999 1.69995 5.53384 1.69995 9.39975C1.69995 13.2657 4.83389 16.3996 8.6998 16.3996Z" fill="#E3C101"/>
<path fill-rule="evenodd" clip-rule="evenodd" d="M8.4603 12.6039H10.1806V5.83984H8.4603L6.73999 7.01172V8.49297L8.37124 7.39141H8.4603V12.6039Z" fill="#FFF2B5"/>
<path d="M10.4756 3.27075C13.161 3.91188 15.0779 6.28109 15.1443 9.04117C15.2108 11.8012 13.4101 14.26 10.7586 15.0295C12.3862 13.7853 13.4654 11.6623 13.4654 9.2504C13.4654 6.70286 12.2624 4.47966 10.4756 3.27075Z" fill="white" fill-opacity="0.2"/>
<path d="M9.4611 17.9131C9.46699 17.919 9.47879 17.9131 9.48468 17.9131C11.3187 17.6831 13.0052 16.946 14.2731 15.7312C14.279 15.7253 14.2967 15.7194 14.2908 15.7135L14.1434 15.401C14.1375 15.3892 14.1257 15.4186 14.1198 15.4245C12.8578 16.5981 11.1005 17.3234 9.30187 17.5416C9.29597 17.5416 9.28418 17.5416 9.28418 17.5475L9.4611 17.9131Z" fill="#B35454"/>
</svg>
